<svg width="27" height="35" viewBox="0 0 27 35" fill="none" xmlns="http://www.w3.org/2000/svg">
<path d="M25.5329 13.2736C25.5342 11.1774 24.9982 9.11596 23.9762 7.28585C22.9542 5.45574 21.4803 3.91805 19.6951 2.81951C17.9099 1.72096 15.8729 1.09822 13.7786 1.0107C11.6843 0.923177 9.60255 1.3738 7.73191 2.31956C5.86127 3.26532 4.26419 4.67467 3.09307 6.41313C1.92195 8.15159 1.21587 10.1612 1.04218 12.2501C0.868501 14.339 1.23302 16.4376 2.10095 18.3456C2.96889 20.2536 4.31128 21.9073 6.00005 23.149C6.53168 23.5431 6.96322 24.0566 7.25984 24.6482C7.55645 25.2397 7.70984 25.8927 7.70762 26.5545V30.2733C7.70762 31.2617 8.10025 32.2096 8.79913 32.9085C9.49802 33.6074 10.4459 34 11.4343 34H15.1025C15.5918 34 16.0764 33.9036 16.5284 33.7163C16.9804 33.529 17.3911 33.2544 17.737 32.9084C18.0829 32.5623 18.3572 32.1514 18.5443 31.6993C18.7314 31.2472 18.8275 30.7626 18.8273 30.2733V26.5545C18.8334 25.8807 18.9972 25.2177 19.3056 24.6186C19.6139 24.0195 20.0583 23.5009 20.603 23.1043C22.1349 21.9641 23.3787 20.4811 24.2347 18.774C25.0908 17.067 25.5354 15.1832 25.5329 13.2736Z" stroke="black" stroke-width="1.3" stroke-linecap="round" stroke-linejoin="round"/>
<path d="M8.00549 26.6908H18.8272" stroke="black" stroke-width="1.3" stroke-linecap="round" stroke-linejoin="round"/>
<path d="M8.00549 29.7944H18.8272" stroke="black" stroke-width="1.3" stroke-linecap="round" stroke-linejoin="round"/>
<path d="M8.00549 13.4938H18.8272" stroke="black" stroke-width="1.3" stroke-linecap="round" stroke-linejoin="round"/>
<path d="M13.4164 18.9065V8.08276" stroke="black" stroke-width="1.3" stroke-linecap="round" stroke-linejoin="round"/>
</svg>
