<svg width="25" height="23" viewBox="0 0 25 23" fill="none" xmlns="http://www.w3.org/2000/svg">
<path d="M17.5854 15.4005L16.2644 16.6262C16.1517 16.5694 16.0292 16.5126 15.9068 16.4468C14.091 15.4609 12.4099 14.2755 10.8998 12.9163C9.43186 11.5143 8.15104 9.95356 7.08501 8.26765C7.01735 8.15704 6.98836 8.08529 6.92714 7.9687L8.1676 6.88651L8.29648 6.76992C8.76319 6.33225 9.02497 5.74141 9.02497 5.12572C9.02497 4.51003 8.76319 3.91919 8.29648 3.48152L6.36329 1.68784C6.1292 1.46982 5.85103 1.29683 5.54472 1.1788C5.23841 1.06076 4.90999 1 4.57832 1C4.24664 1 3.91823 1.06076 3.61192 1.1788C3.30561 1.29683 3.02743 1.46982 2.79334 1.68784L2.2746 2.18409C1.92879 2.59716 1.64883 3.05425 1.44333 3.5413C1.2581 3.98344 1.13361 4.44546 1.0728 4.91646C0.602396 8.52474 2.38415 11.8401 7.21712 16.3272C13.8995 22.5274 19.2512 22.0969 19.4864 22.073C20.0072 22.0052 20.517 21.8777 21.004 21.6933C21.529 21.5034 22.0208 21.2425 22.4635 20.9191L22.9887 20.4407C23.2241 20.2237 23.4108 19.9657 23.5383 19.6815C23.6658 19.3972 23.7314 19.0924 23.7314 18.7846C23.7314 18.4767 23.6658 18.1719 23.5383 17.8877C23.4108 17.6034 23.2241 17.3454 22.9887 17.1284L21.1425 15.4005C20.9091 15.1836 20.6318 15.0115 20.3267 14.894C20.0215 14.7766 19.6944 14.7162 19.364 14.7162C19.0336 14.7162 18.7064 14.7766 18.4013 14.894C18.0961 15.0115 17.8189 15.1836 17.5854 15.4005Z" stroke="#FF4C41" stroke-width="1.3" stroke-miterlimit="10"/>
</svg>
