<svg width="25" height="25" viewBox="0 0 25 25" fill="none" xmlns="http://www.w3.org/2000/svg">
<path d="M17.5854 16.5205L16.2644 17.8416C16.1517 17.7803 16.0292 17.7191 15.9068 17.6482C14.091 16.5857 12.4099 15.3081 10.8998 13.8431C9.43186 12.3321 8.15104 10.6499 7.08501 8.83291C7.01735 8.71369 6.98836 8.63637 6.92714 8.51071L8.1676 7.34435L8.29648 7.2187C8.76319 6.74698 9.02497 6.11019 9.02497 5.44661C9.02497 4.78303 8.76319 4.14624 8.29648 3.67452L6.36329 1.74133C6.1292 1.50636 5.85103 1.31992 5.54472 1.1927C5.23841 1.06549 4.90999 1 4.57832 1C4.24664 1 3.91823 1.06549 3.61192 1.1927C3.30561 1.31992 3.02743 1.50636 2.79334 1.74133L2.2746 2.27618C1.92879 2.72138 1.64883 3.21402 1.44333 3.73896C1.2581 4.21548 1.13361 4.71344 1.0728 5.22107C0.602396 9.11 2.38415 12.6832 7.21712 17.5194C13.8995 24.2017 19.2512 23.7378 19.4864 23.712C20.0072 23.6389 20.517 23.5015 21.004 23.3028C21.529 23.0982 22.0208 22.8169 22.4635 22.4683L22.9887 21.9528C23.2241 21.7189 23.4108 21.4408 23.5383 21.1345C23.6658 20.8281 23.7314 20.4996 23.7314 20.1678C23.7314 19.836 23.6658 19.5075 23.5383 19.2012C23.4108 18.8948 23.2241 18.6167 22.9887 18.3828L21.1425 16.5205C20.9091 16.2867 20.6318 16.1012 20.3267 15.9747C20.0215 15.8481 19.6944 15.783 19.364 15.783C19.0336 15.783 18.7064 15.8481 18.4013 15.9747C18.0961 16.1012 17.8189 16.2867 17.5854 16.5205Z" stroke="black" stroke-width="1.3" stroke-miterlimit="10"/>
</svg>
