<svg width="57" height="53" viewBox="0 0 57 53" fill="none" xmlns="http://www.w3.org/2000/svg">
<path d="M53.9655 0H2.49641C2.16488 0.00376132 1.83738 0.0741536 1.5325 0.207188C1.22762 0.340222 0.951346 0.533209 0.71954 0.77526C0.487735 1.01731 0.304918 1.30361 0.18148 1.61782C0.0580422 1.93204 -0.00356554 2.26802 0.000159361 2.60655V39.741C-0.00356554 40.0796 0.0580422 40.4155 0.18148 40.7298C0.304918 41.044 0.487735 41.3303 0.71954 41.5723C0.951346 41.8144 1.22762 42.0075 1.5325 42.1405C1.83738 42.2736 2.16488 42.3439 2.49641 42.3477H19.8233L26.6433 51.8895C26.8715 52.2136 27.172 52.4777 27.5199 52.6598C27.8677 52.8419 28.253 52.9369 28.6439 52.9369C29.0349 52.9369 29.4202 52.8419 29.7681 52.6598C30.116 52.4777 30.4164 52.2136 30.6446 51.8895L37.4626 42.3477H53.9695C54.301 42.3439 54.6286 42.2736 54.9334 42.1405C55.2383 42.0075 55.5145 41.8144 55.7463 41.5723C55.9781 41.3303 56.161 41.044 56.2845 40.7298C56.4079 40.4155 56.4695 40.0796 56.4658 39.741V2.61484C56.4703 2.27535 56.4092 1.93828 56.2859 1.62297C56.1626 1.30766 55.9795 1.02032 55.7472 0.777394C55.5149 0.534469 55.238 0.340718 54.9322 0.207314C54.6265 0.0739095 54.298 0.00348828 53.9655 0Z" fill="#F95247"/>
<path d="M19.4101 23.5158C19.4092 25.085 19.8332 26.6282 20.6418 27.9983C21.4504 29.3683 22.6165 30.5194 24.029 31.3418C25.4414 32.1641 27.053 32.6303 28.71 32.6958C30.367 32.7614 32.0141 32.424 33.4941 31.716C34.9741 31.008 36.2377 29.953 37.1643 28.6516C38.0909 27.3502 38.6495 25.8458 38.7869 24.282C38.9244 22.7182 38.636 21.1472 37.9492 19.7189C37.2625 18.2906 36.2005 17.0526 34.8643 16.123C34.4437 15.828 34.1023 15.4436 33.8676 15.0008C33.6329 14.5579 33.5116 14.0691 33.5133 13.5737L33.5133 10.7898C33.5133 10.0499 33.2027 9.34027 32.6497 8.81708C32.0968 8.29389 31.3468 7.99997 30.5648 7.99997L27.6625 7.99997C27.2754 7.99997 26.8921 8.07214 26.5344 8.21236C26.1768 8.35258 25.8518 8.5581 25.5782 8.81717C25.3045 9.07625 25.0875 9.3838 24.9395 9.72227C24.7914 10.0607 24.7154 10.4235 24.7156 10.7898L24.7156 13.5737C24.7107 14.0781 24.5811 14.5744 24.3371 15.0229C24.0932 15.4714 23.7416 15.8597 23.3106 16.1565C22.0986 17.0101 21.1146 18.1203 20.4373 19.3982C19.76 20.6761 19.4082 22.0862 19.4101 23.5158Z" stroke="white" stroke-linecap="round" stroke-linejoin="round"/>
<path d="M24.7036 14.176H33.5264M24.7036 11.5292H33.5264" stroke="white" stroke-linecap="round" stroke-linejoin="round"/>
<path d="M32.6367 19.7701L25.0039 27.1601" stroke="white" stroke-linecap="round" stroke-linejoin="round"/>
<path d="M25.5789 19.7701L32.9688 27.4029" stroke="white" stroke-linecap="round" stroke-linejoin="round"/>
</svg>
