<svg width="57" height="53" viewBox="0 0 57 53" fill="none" xmlns="http://www.w3.org/2000/svg">
<path d="M53.9655 0H2.49641C2.16488 0.00376132 1.83738 0.0741536 1.5325 0.207188C1.22762 0.340222 0.951346 0.533209 0.71954 0.77526C0.487735 1.01731 0.304918 1.30361 0.18148 1.61782C0.0580422 1.93204 -0.00356554 2.26802 0.000159361 2.60655V39.741C-0.00356554 40.0796 0.0580422 40.4155 0.18148 40.7298C0.304918 41.044 0.487735 41.3303 0.71954 41.5723C0.951346 41.8144 1.22762 42.0075 1.5325 42.1405C1.83738 42.2736 2.16488 42.3439 2.49641 42.3477H19.8233L26.6433 51.8895C26.8715 52.2136 27.172 52.4777 27.5199 52.6598C27.8677 52.8419 28.253 52.9369 28.6439 52.9369C29.0349 52.9369 29.4202 52.8419 29.7681 52.6598C30.116 52.4777 30.4164 52.2136 30.6446 51.8895L37.4626 42.3477H53.9695C54.301 42.3439 54.6286 42.2736 54.9334 42.1405C55.2383 42.0075 55.5145 41.8144 55.7463 41.5723C55.9781 41.3303 56.161 41.044 56.2845 40.7298C56.4079 40.4155 56.4695 40.0796 56.4658 39.741V2.61484C56.4703 2.27535 56.4092 1.93828 56.2859 1.62297C56.1626 1.30766 55.9795 1.02032 55.7472 0.777394C55.5149 0.534469 55.238 0.340718 54.9322 0.207314C54.6265 0.0739095 54.298 0.00348828 53.9655 0Z" fill="#03C05A"/>
<path d="M19.4101 21.8098C19.4092 23.379 19.8332 24.9222 20.6418 26.2922C21.4504 27.6622 22.6165 28.8133 24.029 29.6357C25.4414 30.4581 27.053 30.9243 28.71 30.9898C30.367 31.0553 32.0141 30.718 33.4941 30.01C34.9741 29.302 36.2377 28.2469 37.1643 26.9455C38.0909 25.6441 38.6495 24.1397 38.7869 22.576C38.9244 21.0122 38.636 19.4412 37.9492 18.0129C37.2625 16.5845 36.2005 15.3465 34.8643 14.417C34.4437 14.122 34.1023 13.7376 33.8676 13.2947C33.6329 12.8519 33.5116 12.3631 33.5133 11.8677L33.5133 9.08371C33.5133 8.34381 33.2027 7.63422 32.6497 7.11103C32.0968 6.58784 31.3468 6.29392 30.5648 6.29392L27.6625 6.29392C27.2754 6.29392 26.8921 6.36609 26.5344 6.50631C26.1768 6.64652 25.8518 6.85204 25.5782 7.11112C25.3045 7.37019 25.0875 7.67775 24.9395 8.01621C24.7914 8.35468 24.7154 8.71742 24.7156 9.08371L24.7156 11.8677C24.7107 12.3721 24.5811 12.8684 24.3371 13.3169C24.0932 13.7654 23.7416 14.1536 23.3106 14.4505C22.0986 15.3041 21.1146 16.4142 20.4373 17.6921C19.76 18.97 19.4082 20.3802 19.4101 21.8098Z" stroke="white" stroke-linecap="round" stroke-linejoin="round"/>
<path d="M24.7036 22.1748L28.0122 25.7039L33.5264 18.6456" stroke="white" stroke-linecap="round" stroke-linejoin="round"/>
<path d="M29 35L29 38" stroke="white" stroke-linecap="round" stroke-linejoin="round"/>
<path d="M36 33L38 35" stroke="white" stroke-linecap="round" stroke-linejoin="round"/>
<path d="M22.0571 32.7622L20 35.0001" stroke="white" stroke-linecap="round" stroke-linejoin="round"/>
<path d="M24.7036 12.4697H33.5264M24.7036 9.82288H33.5264" stroke="white" stroke-linecap="round" stroke-linejoin="round"/>
</svg>
