<svg width="268" height="149" viewBox="0 0 268 149" fill="none" xmlns="http://www.w3.org/2000/svg">
<path d="M78.8757 101.661C78.8733 105.848 79.9438 109.965 81.985 113.621C84.0263 117.276 86.9701 120.347 90.5358 122.541C94.1014 124.735 98.1698 125.979 102.353 126.154C106.536 126.329 110.694 125.429 114.43 123.54C118.166 121.651 121.356 118.836 123.695 115.364C126.034 111.891 127.445 107.878 127.791 103.705C128.138 99.5332 127.41 95.3417 125.677 91.5308C123.943 87.7199 121.262 84.4169 117.889 81.9368C116.827 81.1497 115.965 80.1241 115.373 78.9426C114.78 77.7611 114.474 76.4568 114.479 75.1351L114.479 67.7074C114.479 65.7333 113.694 63.84 112.298 62.4441C110.903 61.0482 109.009 60.264 107.035 60.264L99.7085 60.264C98.7312 60.264 97.7635 60.4566 96.8607 60.8307C95.9578 61.2048 95.1375 61.7531 94.4467 62.4444C93.7558 63.1356 93.2079 63.9562 92.8343 64.8592C92.4606 65.7622 92.2686 66.7301 92.2691 67.7074L92.2691 75.1351C92.2568 76.4809 91.9296 77.805 91.3137 79.0017C90.6978 80.1983 89.8104 81.2341 88.7224 82.0262C85.6627 84.3036 83.1785 87.2656 81.4687 90.6751C79.7589 94.0846 78.8709 97.847 78.8757 101.661Z" fill="url(#paint0_linear)"/>
<path d="M10.944 42.816H25.28V51.264H0V6.336H10.944V42.816Z" fill="#8587DC"/>
<path d="M36.004 11.84C34.084 11.84 32.5053 11.2853 31.268 10.176C30.0733 9.024 29.476 7.616 29.476 5.952C29.476 4.24534 30.0733 2.83733 31.268 1.728C32.5053 0.576 34.084 0 36.004 0C37.8813 0 39.4173 0.576 40.612 1.728C41.8493 2.83733 42.468 4.24534 42.468 5.952C42.468 7.616 41.8493 9.024 40.612 10.176C39.4173 11.2853 37.8813 11.84 36.004 11.84ZM41.444 15.552V51.264H30.5V15.552H41.444Z" fill="#8587DC"/>
<path d="M62.943 15.04C65.4603 15.04 67.6577 15.552 69.535 16.576C71.455 17.6 72.927 18.944 73.951 20.608V15.552H84.895V51.2C84.895 54.4853 84.2337 57.4507 82.911 60.096C81.631 62.784 79.647 64.9173 76.959 66.496C74.3137 68.0747 71.007 68.864 67.039 68.864C61.7483 68.864 57.4603 67.6053 54.175 65.088C50.8897 62.6133 49.0123 59.2427 48.543 54.976H59.359C59.7003 56.3413 60.511 57.408 61.791 58.176C63.071 58.9867 64.6497 59.392 66.527 59.392C68.7883 59.392 70.5803 58.7307 71.903 57.408C73.2683 56.128 73.951 54.0587 73.951 51.2V46.144C72.8843 47.808 71.4123 49.1733 69.535 50.24C67.6577 51.264 65.4603 51.776 62.943 51.776C59.999 51.776 57.3323 51.0293 54.943 49.536C52.5537 48 50.655 45.8453 49.247 43.072C47.8817 40.256 47.199 37.0133 47.199 33.344C47.199 29.6747 47.8817 26.4533 49.247 23.68C50.655 20.9067 52.5537 18.7733 54.943 17.28C57.3323 15.7867 59.999 15.04 62.943 15.04ZM73.951 33.408C73.951 30.6773 73.183 28.5227 71.647 26.944C70.1537 25.3653 68.319 24.576 66.143 24.576C63.967 24.576 62.111 25.3653 60.575 26.944C59.0817 28.48 58.335 30.6133 58.335 33.344C58.335 36.0747 59.0817 38.2507 60.575 39.872C62.111 41.4507 63.967 42.24 66.143 42.24C68.319 42.24 70.1537 41.4507 71.647 39.872C73.183 38.2933 73.951 36.1387 73.951 33.408Z" fill="#8587DC"/>
<path d="M114.765 15.168C118.861 15.168 122.146 16.5333 124.62 19.264C127.095 21.952 128.333 25.664 128.333 30.4V51.264H117.452V31.872C117.452 29.4827 116.834 27.6267 115.597 26.304C114.359 24.9813 112.695 24.32 110.604 24.32C108.514 24.32 106.85 24.9813 105.613 26.304C104.375 27.6267 103.757 29.4827 103.757 31.872V51.264H92.8125V3.904H103.757V20.352C104.866 18.7733 106.38 17.5147 108.3 16.576C110.22 15.6373 112.375 15.168 114.765 15.168Z" fill="#8587DC"/>
<path d="M155.842 41.984V51.264H150.273C146.305 51.264 143.212 50.304 140.993 48.384C138.775 46.4213 137.665 43.2427 137.665 38.848V24.64H133.314V15.552H137.665V6.848H148.609V15.552H155.777V24.64H148.609V38.976C148.609 40.0427 148.866 40.8107 149.378 41.28C149.89 41.7493 150.743 41.984 151.938 41.984H155.842Z" fill="#8587DC"/>
<path d="M226.38 6.336V51.264H215.436V24.32L205.388 51.264H196.556L186.444 24.256V51.264H175.5V6.336H188.428L201.036 37.44L213.516 6.336H226.38Z" fill="#8587DC"/>
<path d="M267.914 32.832C267.914 33.856 267.85 34.9227 267.722 36.032H242.954C243.125 38.2507 243.829 39.9573 245.066 41.152C246.346 42.304 247.903 42.88 249.738 42.88C252.469 42.88 254.367 41.728 255.434 39.424H267.082C266.485 41.7707 265.397 43.8827 263.818 45.76C262.282 47.6373 260.341 49.1093 257.994 50.176C255.647 51.2427 253.023 51.776 250.122 51.776C246.623 51.776 243.509 51.0293 240.778 49.536C238.047 48.0427 235.914 45.9093 234.378 43.136C232.842 40.3627 232.074 37.12 232.074 33.408C232.074 29.696 232.821 26.4533 234.314 23.68C235.85 20.9067 237.983 18.7733 240.714 17.28C243.445 15.7867 246.581 15.04 250.122 15.04C253.578 15.04 256.65 15.7653 259.338 17.216C262.026 18.6667 264.117 20.736 265.61 23.424C267.146 26.112 267.914 29.248 267.914 32.832ZM256.714 29.952C256.714 28.0747 256.074 26.5813 254.794 25.472C253.514 24.3627 251.914 23.808 249.994 23.808C248.159 23.808 246.602 24.3413 245.322 25.408C244.085 26.4747 243.317 27.9893 243.018 29.952H256.714Z" fill="#8587DC"/>
<path d="M71.6308 65.336V110.264H60.6868V91.768H43.6628V110.264H32.7188V65.336H43.6628V82.936H60.6868V65.336H71.6308Z" fill="#8587DC"/>
<path d="M181.03 74.168C185.467 74.168 188.987 75.512 191.59 78.2C194.235 80.888 195.558 84.6213 195.558 89.4V110.264H184.678V90.872C184.678 88.568 184.059 86.7973 182.822 85.56C181.627 84.28 179.963 83.64 177.83 83.64C175.696 83.64 174.011 84.28 172.774 85.56C171.579 86.7973 170.982 88.568 170.982 90.872V110.264H160.102V90.872C160.102 88.568 159.483 86.7973 158.246 85.56C157.051 84.28 155.387 83.64 153.254 83.64C151.12 83.64 149.435 84.28 148.198 85.56C147.003 86.7973 146.406 88.568 146.406 90.872V110.264H135.462V74.552H146.406V79.032C147.515 77.5387 148.966 76.3653 150.758 75.512C152.55 74.616 154.576 74.168 156.838 74.168C159.526 74.168 161.915 74.744 164.006 75.896C166.139 77.048 167.803 78.6907 168.998 80.824C170.235 78.8613 171.92 77.2613 174.054 76.024C176.187 74.7867 178.512 74.168 181.03 74.168Z" fill="#8587DC"/>
<path d="M236.876 91.832C236.876 92.856 236.812 93.9227 236.684 95.032H211.916C212.086 97.2507 212.79 98.9573 214.028 100.152C215.308 101.304 216.865 101.88 218.7 101.88C221.43 101.88 223.329 100.728 224.396 98.424H236.044C235.446 100.771 234.358 102.883 232.78 104.76C231.244 106.637 229.302 108.109 226.956 109.176C224.609 110.243 221.985 110.776 219.084 110.776C215.585 110.776 212.47 110.029 209.74 108.536C207.009 107.043 204.876 104.909 203.34 102.136C201.804 99.3627 201.036 96.12 201.036 92.408C201.036 88.696 201.782 85.4533 203.276 82.68C204.812 79.9067 206.945 77.7733 209.676 76.28C212.406 74.7867 215.542 74.04 219.084 74.04C222.54 74.04 225.612 74.7653 228.3 76.216C230.988 77.6667 233.078 79.736 234.572 82.424C236.108 85.112 236.876 88.248 236.876 91.832ZM225.676 88.952C225.676 87.0747 225.036 85.5813 223.756 84.472C222.476 83.3627 220.876 82.808 218.956 82.808C217.121 82.808 215.564 83.3413 214.284 84.408C213.046 85.4747 212.278 86.9893 211.98 88.952H225.676Z" fill="#8587DC"/>
<path d="M83.8757 130.264L73.8757 140.264" stroke="#FFC36A" stroke-width="3"/>
<line x1="104.376" y1="134.264" x2="104.376" y2="148.406" stroke="#FFC36A" stroke-width="3"/>
<line x1="122.936" y1="130.203" x2="132.936" y2="140.203" stroke="#FFC36A" stroke-width="3"/>
<mask id="mask0" style="mask-type:alpha" maskUnits="userSpaceOnUse" x="78" y="60" width="50" height="67">
<path d="M78.8757 101.661C78.8733 105.848 79.9438 109.965 81.985 113.621C84.0263 117.276 86.9701 120.347 90.5358 122.541C94.1014 124.735 98.1698 125.979 102.353 126.154C106.536 126.329 110.694 125.429 114.43 123.54C118.166 121.651 121.356 118.836 123.695 115.364C126.034 111.891 127.445 107.878 127.791 103.705C128.138 99.5332 127.41 95.3417 125.677 91.5308C123.943 87.7199 121.262 84.4169 117.889 81.9368C116.827 81.1497 115.965 80.1241 115.373 78.9426C114.78 77.7611 114.474 76.4568 114.479 75.1351L114.479 67.7074C114.479 65.7333 113.694 63.84 112.298 62.4441C110.903 61.0482 109.009 60.264 107.035 60.264L99.7085 60.264C98.7312 60.264 97.7635 60.4566 96.8607 60.8307C95.9578 61.2048 95.1375 61.7531 94.4467 62.4444C93.7558 63.1356 93.2079 63.9562 92.8343 64.8592C92.4606 65.7622 92.2686 66.7301 92.2691 67.7074L92.2691 75.1351C92.2568 76.4809 91.9296 77.805 91.3137 79.0017C90.6978 80.1983 89.8104 81.2341 88.7224 82.0262C85.6627 84.3036 83.1785 87.2656 81.4687 90.6751C79.7589 94.0846 78.8709 97.847 78.8757 101.661Z" fill="url(#paint1_linear)"/>
</mask>
<g mask="url(#mask0)">
<path fill-rule="evenodd" clip-rule="evenodd" d="M115 76L92 76L92 73.5L115 73.5L115 76Z" fill="white"/>
<path fill-rule="evenodd" clip-rule="evenodd" d="M92 68H115V70.5H92V68Z" fill="white"/>
</g>
<defs>
<linearGradient id="paint0_linear" x1="103.376" y1="126.175" x2="103.376" y2="60.264" gradientUnits="userSpaceOnUse">
<stop stop-color="#FFC36A" stop-opacity="0.13"/>
<stop offset="0.604167" stop-color="#FFC36A"/>
</linearGradient>
<linearGradient id="paint1_linear" x1="103.376" y1="126.175" x2="103.376" y2="60.264" gradientUnits="userSpaceOnUse">
<stop stop-color="#FFC36A" stop-opacity="0.13"/>
<stop offset="0.604167" stop-color="#FFC36A"/>
</linearGradient>
</defs>
</svg>
