<svg width="20" height="31" viewBox="0 0 20 31" fill="none" xmlns="http://www.w3.org/2000/svg">
<path d="M10.0031 7.12224C8.31245 7.12224 6.94194 5.75173 6.94194 4.06112C6.94194 2.37051 8.31245 1 10.0031 1C11.6937 1 13.0642 2.37051 13.0642 4.06112C13.0642 5.75173 11.6937 7.12224 10.0031 7.12224Z" stroke="black" stroke-width="1.3" stroke-linecap="round" stroke-linejoin="round"/>
<path d="M11.7803 8.28771L18.594 13.9382C18.594 13.9382 19.5074 14.8149 18.594 15.905C17.7625 16.9067 16.9008 16.3207 16.9008 16.3207L12.9436 13.2251L12.9996 18.1281C12.9996 18.1281 16.1555 19.9204 17.2369 22.9406C18.3183 25.9608 18.8978 28.3972 18.8978 28.3972C18.8978 28.3972 19.2489 29.6897 17.2089 30.0301C16.7536 30.1324 16.2763 30.0499 15.8817 29.8007C15.4872 29.5515 15.2075 29.156 15.1042 28.7009C15.1042 28.7009 13.5532 22.6347 11.7803 21.5921L10.0074 20.5301L4.21903 29.4485C4.21903 29.4485 3.37889 30.6031 1.83648 29.6639C0.468564 28.8367 1.19022 27.5872 1.19022 27.5872L6.65759 19.1858C7.02677 18.6218 7.19942 17.9516 7.14875 17.2794V17.2578C7.0992 16.5706 7.0992 11.2864 7.0992 11.2864C7.0992 11.2864 5.25305 12.4324 5.16042 13.3458C5.03332 14.4703 4.97731 16.1613 4.97731 16.1613C4.97731 16.1613 5.09795 17.2492 3.59216 17.2384C2.53875 17.2384 2.4849 16.3767 2.4849 16.3767C2.41327 15.3767 2.39242 14.3737 2.42243 13.3716C2.44435 12.4777 2.75157 11.6142 3.29919 10.9072C4.00645 9.9987 4.80638 9.16628 5.68604 8.42343C7.38356 6.99735 9.84581 6.83578 11.6209 8.16277C11.6769 8.2037 11.7307 8.24678 11.7803 8.28771Z" stroke="black" stroke-width="1.3" stroke-linecap="round" stroke-linejoin="round"/>
</svg>
