<svg width="30" height="30" viewBox="0 0 30 30" fill="none" xmlns="http://www.w3.org/2000/svg">
<g clip-path="url(#clip0)">
<path d="M30.001 28.793L22.907 21.699C25.1462 19.1463 26.305 15.823 26.1387 12.4315C25.9724 9.04 24.4938 5.84608 22.0157 3.52476C19.5375 1.20344 16.2538 -0.0633613 12.8587 -0.00789612C9.46356 0.047569 6.22309 1.42097 3.82206 3.822C1.42103 6.22303 0.047569 9.46356 -0.0078962 12.8587C-0.0633614 16.2538 1.2035 19.5374 3.52482 22.0156C5.84614 24.4938 9.04006 25.9723 12.4316 26.1386C15.8231 26.305 19.1463 25.1461 21.699 22.907L28.793 30.001L30.001 28.793ZM13.078 24.447C10.8295 24.447 8.63138 23.7802 6.76176 22.531C4.89213 21.2817 3.43499 19.5061 2.5745 17.4287C1.71401 15.3513 1.48885 13.0654 1.92753 10.86C2.3662 8.65465 3.449 6.62884 5.03898 5.03886C6.62896 3.44887 8.65465 2.36608 10.86 1.92741C13.0654 1.48873 15.3513 1.71389 17.4287 2.57438C19.5062 3.43487 21.2818 4.89207 22.531 6.7617C23.7803 8.63132 24.4471 10.8294 24.4471 13.078C24.4436 16.0923 23.2445 18.9822 21.113 21.1136C18.9814 23.245 16.0914 24.4438 13.0771 24.447H13.078Z" fill="#231F20"/>
</g>
<defs>
<clipPath id="clip0">
<rect width="30.001" height="30" fill="white"/>
</clipPath>
</defs>
</svg>
