<svg width="35" height="35" viewBox="0 0 35 35" fill="none" xmlns="http://www.w3.org/2000/svg">
<path d="M34 19.9933V15.0067L29.2275 14.6276C28.9361 13.4325 28.4629 12.2892 27.8244 11.2378L30.9334 7.5929L27.4071 4.06668L23.7622 7.17565C22.7108 6.53704 21.5676 6.06382 20.3724 5.77253L19.9933 1H15.0067L14.6277 5.77253C13.4325 6.06372 12.2891 6.53694 11.2378 7.17565L7.59294 4.06668L4.06672 7.5929L7.17565 11.2378C6.53694 12.2891 6.06372 13.4324 5.77253 14.6276L1 15.0067V19.9933L5.77253 20.3724C6.06372 21.5676 6.53694 22.7109 7.17565 23.7622L4.06672 27.4071L7.59294 30.9333L11.2378 27.8244C12.2891 28.4631 13.4325 28.9363 14.6277 29.2275L15.0067 34H19.9933L20.3724 29.2275C21.5676 28.9363 22.7109 28.4631 23.7622 27.8244L27.4071 30.9333L30.9334 27.4071L27.8244 23.7622C28.4631 22.7109 28.9363 21.5676 29.2275 20.3724L34 19.9933Z" stroke="#202020" stroke-width="1.3" stroke-linecap="round" stroke-linejoin="round"/>
<path d="M17.494 24.4071C21.3091 24.4071 24.4019 21.3143 24.4019 17.4992C24.4019 13.6841 21.3091 10.5913 17.494 10.5913C13.6788 10.5913 10.5861 13.6841 10.5861 17.4992C10.5861 21.3143 13.6788 24.4071 17.494 24.4071Z" stroke="#202020" stroke-width="1.3" stroke-linecap="round" stroke-linejoin="round"/>
</svg>
