<svg width="31" height="26" viewBox="0 0 31 26" fill="none" xmlns="http://www.w3.org/2000/svg">
<path d="M14.6214 1.32615L7.51675 7.47321H2.31322C1.96494 7.47321 1.63092 7.61156 1.38465 7.85784C1.13837 8.10411 1.00002 8.43813 1.00002 8.78641V16.5318C0.999091 16.7049 1.03237 16.8764 1.09795 17.0365C1.16353 17.1967 1.26011 17.3423 1.38215 17.465C1.50418 17.5877 1.64926 17.685 1.80905 17.7515C1.96884 17.8179 2.14018 17.8521 2.31322 17.8521H7.38296L14.6214 24.1153C14.8158 24.2832 15.0543 24.3917 15.3086 24.428C15.5628 24.4643 15.8222 24.4268 16.0558 24.32C16.2893 24.2132 16.4874 24.0416 16.6263 23.8256C16.7652 23.6096 16.8392 23.3582 16.8394 23.1014V2.32953C16.8372 2.0736 16.7617 1.82365 16.622 1.60919C16.4823 1.39474 16.2842 1.22473 16.051 1.11924C15.8178 1.01374 15.5593 0.977171 15.306 1.01383C15.0527 1.0505 14.8151 1.15886 14.6214 1.32615V1.32615Z" stroke="black" stroke-width="1.3" stroke-linecap="round" stroke-linejoin="round"/>
<path d="M21.374 7.05786C25.0813 10.4975 25.0813 14.9441 21.374 18.3838" stroke="black" stroke-width="1.3" stroke-linecap="round" stroke-linejoin="round"/>
<path d="M26.5001 4.39612C30.7249 9.45178 30.7249 15.9896 26.5001 21.0453" stroke="black" stroke-width="1.3" stroke-linecap="round" stroke-linejoin="round"/>
</svg>
